<svg  viewBox="0 0 29 25" fill="none" xmlns="http://www.w3.org/2000/svg">
<path fill-rule="evenodd" clip-rule="evenodd" d="M13.8359 0.90332C13.2793 0.90332 12.8282 1.35448 12.8282 1.91101V9.02356C14.2982 8.13341 16.0225 7.62104 17.8665 7.62104C19.7106 7.62104 21.435 8.13347 22.9051 9.02369V1.91101C22.9051 1.35448 22.4539 0.90332 21.8974 0.90332H13.8359ZM1.07196 13.667H8.85077C8.38326 14.8064 8.12549 16.0542 8.12549 17.3621C8.12549 19.5377 8.83875 21.5468 10.0442 23.1681C9.88244 23.5085 9.53545 23.7439 9.1335 23.7439H1.07196C0.515428 23.7439 0.06427 23.2927 0.06427 22.7362V14.6747C0.06427 14.1181 0.515429 13.667 1.07196 13.667ZM0.0643243 1.91111C0.0643243 1.35457 0.515484 0.903416 1.07202 0.903416H9.13356C9.69009 0.903416 10.1412 1.35458 10.1412 1.91111V9.97265C10.1412 10.5292 9.69009 10.9803 9.13355 10.9803H1.07202C0.515482 10.9803 0.0643243 10.5292 0.0643243 9.97265V1.91111ZM24.9209 17.0263C24.9209 17.8174 24.7906 18.578 24.5505 19.288L27.533 21.7906C28.2435 22.3868 28.3362 23.4462 27.74 24.1567C27.1438 24.8673 26.0844 24.96 25.3739 24.3637L22.7248 22.1409C21.4599 23.3427 19.7496 24.0802 17.867 24.0802C13.9713 24.0802 10.8132 20.9221 10.8132 17.0263C10.8132 13.1306 13.9713 9.97247 17.867 9.97247C21.7627 9.97247 24.9209 13.1306 24.9209 17.0263ZM13.9874 17.0263C13.9874 19.169 15.7244 20.9059 17.867 20.9059C20.0097 20.9059 21.7466 19.169 21.7466 17.0263C21.7466 14.8837 20.0097 13.1467 17.867 13.1467C15.7244 13.1467 13.9874 14.8837 13.9874 17.0263Z" fill="#7D8490"/>
</svg>
